<?xml version="1.0" encoding="iso-8859-1"?>
<!-- Generator: Adobe Illustrator 19.0.0, SVG Export Plug-In . SVG Version: 6.00 Build 0)  -->
<svg version="1.1" id="Layer_1" xmlns="http://www.w3.org/2000/svg" xmlns:xlink="http://www.w3.org/1999/xlink" x="0px" y="0px"
	 viewBox="0 0 512.002 512.002" style="enable-background:new 0 0 512.002 512.002;" xml:space="preserve">
<polygon style="fill:#E6AF78;" points="168.433,312.2 168.433,282.787 92.8,282.787 92.8,312.2 130.617,345.814 "/>
<path style="fill:#D29B6E;" d="M92.8,282.787v31.033c47.638,17.164,75.633-25.793,75.633-25.793v-5.24H92.8V282.787z"/>
<path style="fill:#EFF2FA;" d="M252.465,366.234c-0.03-16.19-10.269-33.453-27.886-38.354l-35.23-7.3l-10.005-15.109
	c-1.438-1.91-4.177-2.237-6.024-0.719L130.56,341.7l0,0l0,0l-42.899-36.788c-1.853-1.51-4.591-1.172-6.022,0.742L71.692,320.8
	l-35.202,7.432c-17.6,4.967-27.773,22.269-27.742,38.459l0.02,10.422c0.012,6.096,5.665,11.027,12.627,11.014l96.646-0.181
	l25.212-0.047l96.646-0.181c6.962-0.013,12.597-4.966,12.585-11.061L252.465,366.234z"/>
<g>
	<path style="fill:#E4EAF6;" d="M39.42,358.614l-22.443-16.721c-5.36,7.225-8.244,16.169-8.228,24.798l0.02,10.422
		c0.012,6.096,5.665,11.027,12.627,11.014l26.033-0.049v-11.815C47.428,369.53,44.516,363.114,39.42,358.614z"/>
	<path style="fill:#E4EAF6;" d="M252.484,376.656l-0.019-10.422c-0.019-10.34-4.209-21.113-11.82-28.828l-21.054,21.21
		c-5.097,4.5-8.008,10.916-8.008,17.649v11.506l28.316-0.053C246.862,387.704,252.496,382.751,252.484,376.656z"/>
</g>
<path style="fill:#785550;" d="M69.952,226.403c0.687-16.947,9.608-38.251,11.814-42.898c0.282-0.592,0.439-0.911,0.439-0.911
	c6.808-0.863,13.33-1.387,19.545-1.635c1.775-0.071,3.527-0.12,5.253-0.147c47.456-0.763,75.72,14.316,75.72,14.316l8.881,20.395
	c12.566-38.451,8.134-70.943,4.112-79.767c-30.577,4.295-76.133-20.909-104.614,0.162l0,0
	c-18.097,0.033-30.569,15.088-30.533,33.753c0.035,18.018,8.469,54.027,8.469,54.027l0.914,5.884c-0.001-0.603-0.024-1.503,0-2.119
	C69.953,227.433,69.95,226.433,69.952,226.403z"/>
<path style="fill:#F0C087;" d="M191.142,239.71c0.044-0.335,0.086-0.669,0.126-1.003c1.058-8.801,2.078-19.941-1.804-28.096
	c-2.417-5.077-4.498-10.33-6.741-15.482c0,0-28.264-15.08-75.72-14.316c-1.725,0.028-3.477,0.076-5.253,0.147
	c-6.216,0.249-12.737,0.772-19.545,1.635c0,0-0.158,0.319-0.439,0.911c-16.369,34.502-18.966,77.377,11.047,105.862
	c6.882,6.533,15.243,11.709,24.546,14.278c1.155,0.32,2.322,0.598,3.5,0.835c0.228,0.046,0.457,0.091,0.686,0.133
	c2.943,0.547,5.948,0.834,9.003,0.828C165.962,305.378,187.12,270.138,191.142,239.71z"/>
<path style="fill:#E6AF78;" d="M90.705,239.178c-1.026-47.425,7.1-45.039,7.1-45.039c20.045-4.488,53.234-1.32,86.794,5.381
	c-0.62-1.468-1.241-2.934-1.877-4.391c0,0-28.264-15.08-75.72-14.316c-1.725,0.028-3.477,0.076-5.253,0.147
	c-6.216,0.249-12.737,0.772-19.545,1.635c0,0-0.158,0.319-0.439,0.911c-16.369,34.502-18.966,77.377,11.047,105.862
	c6.882,6.533,15.243,11.709,24.546,14.278c1.155,0.32,2.322,0.598,3.5,0.835c0.228,0.046,0.457,0.091,0.686,0.133
	c2.935,0.546,5.933,0.832,8.98,0.828C119.512,301.693,91.466,274.342,90.705,239.178z"/>
<path style="fill:#694B4B;" d="M195.715,135.757c-30.577,4.295-76.133-20.909-104.614,0.162c0,0-22.314,25.651-8.897,46.676
	c6.808-0.863,13.33-1.387,19.545-1.635c0.037-0.002,0.074-0.002,0.111-0.004c1.737-0.068,3.452-0.116,5.141-0.143
	c47.456-0.763,75.72,14.316,75.72,14.316l8.881,20.395C204.17,177.073,199.737,144.58,195.715,135.757z"/>
<path style="fill:#E4EAF6;" d="M117.978,354.33l12.582-12.63l-42.899-36.788c-1.853-1.51-4.591-1.172-6.022,0.742L71.692,320.8
	l33.703,46.159L117.978,354.33z"/>
<path id="SVGCleanerId_0" style="fill:#E4EAF6;" d="M155.82,366.865l33.529-46.285l-10.005-15.109
	c-1.438-1.91-4.177-2.237-6.024-0.719L130.56,341.7l12.63,12.582L155.82,366.865z"/>
<g>
	<path id="SVGCleanerId_0_1_" style="fill:#E4EAF6;" d="M155.82,366.865l33.529-46.285l-10.005-15.109
		c-1.438-1.91-4.177-2.237-6.024-0.719L130.56,341.7l12.63,12.582L155.82,366.865z"/>
</g>
<polygon style="fill:#E6AF78;" points="420.762,311.324 420.762,281.572 344.257,281.572 344.257,311.324 382.51,345.326 "/>
<path style="fill:#D29B6E;" d="M344.257,281.572v31.391c48.187,17.361,76.505-26.09,76.505-26.09v-5.3L344.257,281.572
	L344.257,281.572z"/>
<path style="fill:#EFF2FA;" d="M505.763,365.981c-0.031-16.376-10.387-33.839-28.208-38.795l-35.635-7.384L431.8,304.519
	c-1.455-1.932-4.225-2.262-6.094-0.728l-43.253,37.375l0,0l0,0l-43.393-37.211c-1.875-1.528-4.644-1.186-6.091,0.751l-10.062,15.32
	l-35.607,7.517c-17.803,5.024-28.093,22.525-28.063,38.902l0.02,10.542c0.012,6.167,5.73,11.154,12.772,11.141l97.76-0.183
	l25.503-0.048l97.76-0.183c7.043-0.013,12.742-5.023,12.73-11.189L505.763,365.981z"/>
<g>
	<path style="fill:#E4EAF6;" d="M290.261,358.274l-22.702-16.913c-5.422,7.308-8.339,16.355-8.323,25.083l0.02,10.542
		c0.012,6.167,5.73,11.154,12.772,11.141l26.333-0.049v-11.951C298.361,369.315,295.417,362.826,290.261,358.274z"/>
	<path style="fill:#E4EAF6;" d="M505.782,376.523l-0.02-10.542c-0.02-10.459-4.257-21.357-11.956-29.161l-21.297,21.454
		c-5.156,4.552-8.101,11.041-8.101,17.852v11.639l28.643-0.054C500.094,387.699,505.794,382.689,505.782,376.523z"/>
</g>
<path style="fill:#785550;" d="M321.145,224.539c0.695-17.142,9.72-38.692,11.95-43.392c0.285-0.599,0.444-0.922,0.444-0.922
	c6.887-0.873,13.484-1.403,19.771-1.654c1.796-0.072,3.568-0.121,5.313-0.149c48.003-0.772,76.593,14.482,76.593,14.482
	l8.983,20.631c12.711-38.895,8.228-71.761,4.159-80.687c-30.929,4.344-77.011-21.151-105.82,0.163l0,0
	c-18.306,0.033-30.921,15.262-30.885,34.141c0.035,18.225,8.566,54.65,8.566,54.65l0.925,5.952c-0.001-0.61-0.024-1.52,0-2.144
	C321.146,225.581,321.144,224.569,321.145,224.539z"/>
<path style="fill:#F0C087;" d="M443.732,237.999c0.045-0.339,0.087-0.677,0.128-1.015c1.07-8.903,2.102-20.171-1.825-28.421
	c-2.445-5.136-4.55-10.449-6.819-15.661c0,0-28.59-15.254-76.593-14.482c-1.745,0.028-3.517,0.077-5.313,0.149
	c-6.288,0.252-12.885,0.781-19.771,1.654c0,0-0.159,0.323-0.444,0.922c-16.558,34.9-19.185,78.27,11.174,107.082
	c6.962,6.608,15.42,11.845,24.83,14.443c1.168,0.323,2.348,0.605,3.54,0.844c0.231,0.046,0.462,0.092,0.694,0.135
	c2.977,0.553,6.017,0.843,9.106,0.838C418.263,304.424,439.664,268.778,443.732,237.999z"/>
<path style="fill:#E6AF78;" d="M342.138,237.461c-1.037-47.972,7.182-45.558,7.182-45.558c20.276-4.54,53.847-1.336,87.794,5.443
	c-0.627-1.485-1.256-2.968-1.899-4.443c0,0-28.59-15.254-76.593-14.482c-1.745,0.028-3.517,0.077-5.313,0.149
	c-6.288,0.252-12.885,0.781-19.771,1.654c0,0-0.159,0.323-0.444,0.922c-16.558,34.9-19.185,78.27,11.174,107.082
	c6.962,6.608,15.419,11.845,24.83,14.443c1.168,0.323,2.348,0.605,3.54,0.844c0.231,0.046,0.462,0.092,0.694,0.135
	c2.969,0.552,6.001,0.841,9.083,0.837C371.277,300.696,342.907,273.031,342.138,237.461z"/>
<path style="fill:#694B4B;" d="M448.359,132.847c-30.929,4.344-77.011-21.151-105.82,0.163c0,0-22.571,25.947-9,47.214
	c6.887-0.873,13.484-1.403,19.771-1.654c0.038-0.002,0.075-0.002,0.113-0.004c1.757-0.069,3.492-0.118,5.2-0.145
	c48.003-0.772,76.593,14.482,76.593,14.482l8.983,20.631C456.91,174.639,452.428,141.773,448.359,132.847z"/>
<path style="fill:#E4EAF6;" d="M369.725,353.94l12.727-12.775l-43.393-37.211c-1.875-1.528-4.644-1.186-6.091,0.751l-10.062,15.32
	l34.091,46.691L369.725,353.94z"/>
<path id="SVGCleanerId_1" style="fill:#E4EAF6;" d="M408.004,366.619l33.916-46.819L431.8,304.518
	c-1.455-1.932-4.225-2.262-6.094-0.728l-43.253,37.375l12.776,12.727L408.004,366.619z"/>
<g>
	<path id="SVGCleanerId_1_1_" style="fill:#E4EAF6;" d="M408.004,366.619l33.916-46.819L431.8,304.518
		c-1.455-1.932-4.225-2.262-6.094-0.728l-43.253,37.375l12.776,12.727L408.004,366.619z"/>
</g>
<g>
	<polyline style="fill:#515262;" points="390.417,365.515 374.478,364.984 369.789,387.944 395.292,387.896 390.417,365.515 	"/>
	<path style="fill:#515262;" d="M369.733,358.191c0.009,4.676,3.841,8.494,8.517,8.485l8.501-0.016
		c4.676-0.009,8.493-3.841,8.485-8.517l-0.008-4.25l-12.776-12.727l-12.727,12.776L369.733,358.191z"/>
</g>
<polygon style="fill:#E6AF78;" points="311.331,335.374 311.331,292.844 201.965,292.844 201.965,335.374 256.648,383.982 "/>
<path style="fill:#D29B6E;" d="M201.965,292.844v44.874c68.885,24.819,109.366-37.297,109.366-37.297v-7.578H201.965z"/>
<path style="fill:#B4E1FA;" d="M432.84,413.507c-0.044-23.41-14.849-48.374-40.324-55.459l-50.942-10.555l-14.467-21.846
	c-2.079-2.761-6.04-3.234-8.711-1.041l-61.832,53.427l0,0l0,0l-62.032-53.195c-2.679-2.183-6.638-1.695-8.707,1.074l-14.385,21.901
	L120.54,358.56c-25.45,7.182-40.16,32.201-40.116,55.611l0.028,15.07c0.017,8.815,8.191,15.946,18.258,15.927l139.75-0.263
	l36.457-0.068l139.75-0.262c10.067-0.019,18.215-7.18,18.198-15.995L432.84,413.507z"/>
<g>
	<path style="fill:#A0D2F0;" d="M124.777,402.49l-32.452-24.178c-7.751,10.447-11.921,23.38-11.898,35.858l0.028,15.07
		c0.017,8.815,8.191,15.946,18.258,15.927l37.643-0.071V428.01C136.358,418.274,132.148,408.997,124.777,402.49z"/>
	<path style="fill:#A0D2F0;" d="M432.868,428.577l-0.028-15.07c-0.028-14.952-6.086-30.53-17.091-41.686l-30.444,30.67
		c-7.37,6.506-11.58,15.784-11.58,25.521v16.638l40.946-0.077C424.738,444.554,432.885,437.392,432.868,428.577z"/>
</g>
<path style="fill:#785550;" d="M168.802,210.299c0.996-24.331,13.914-54.919,17.107-61.591c0.407-0.851,0.635-1.307,0.635-1.307
	c9.859-1.238,19.303-1.991,28.303-2.348c2.572-0.102,5.108-0.172,7.607-0.211c68.72-1.096,109.648,20.555,109.648,20.555
	l12.861,29.283c18.197-55.206,11.779-101.856,5.954-114.526c-44.277,6.167-109.727-29.98-150.971,0.273l-3.505,0.006
	c-26.206,0.047-41.621,21.968-41.568,48.767c0.05,25.869,12.605,77.217,12.605,77.217l1.324,8.448c-0.002-0.867-0.035-2.158,0-3.043
	C168.804,211.778,168.8,210.343,168.802,210.299z"/>
<path style="fill:#F0C087;" d="M344.293,229.405c0.064-0.481,0.125-0.961,0.183-1.441c1.532-12.636,3.009-28.63-2.613-40.339
	c-3.5-7.289-6.513-14.831-9.762-22.229c0,0-40.928-21.652-109.648-20.555c-2.499,0.04-5.035,0.109-7.607,0.211
	c-9.001,0.358-18.444,1.109-28.303,2.348c0,0-0.228,0.457-0.636,1.309c-23.703,49.537-27.465,111.096,15.998,151.993
	c9.967,9.378,22.073,16.812,35.545,20.5c1.673,0.459,3.362,0.859,5.068,1.197c0.331,0.066,0.662,0.131,0.994,0.192
	c4.261,0.786,8.614,1.196,13.037,1.188C307.832,323.689,338.47,273.093,344.293,229.405z"/>
<path style="fill:#E6AF78;" d="M198.854,228.641c-1.485-68.091,10.281-64.665,10.281-64.665
	c29.027-6.443,77.086-1.896,125.684,7.726c-0.898-2.107-1.798-4.212-2.717-6.305c0,0-40.928-21.652-109.648-20.555
	c-2.499,0.04-5.035,0.109-7.607,0.211c-9.001,0.358-18.444,1.109-28.303,2.348c0,0-0.228,0.457-0.636,1.309
	c-23.703,49.536-27.465,111.096,15.998,151.992c9.966,9.378,22.073,16.812,35.545,20.5c1.673,0.459,3.362,0.859,5.068,1.197
	c0.331,0.066,0.662,0.131,0.994,0.192c4.25,0.784,8.592,1.193,13.004,1.187C240.569,318.398,199.956,279.129,198.854,228.641z"/>
<path style="fill:#694B4B;" d="M350.917,80.153c-44.277,6.167-109.727-29.98-150.971,0.273c0,0-32.83,36.789-13.403,66.974
	c9.859-1.238,19.303-1.991,28.303-2.348c0.054-0.002,0.107-0.003,0.161-0.006c2.516-0.098,4.999-0.167,7.444-0.206
	c68.72-1.096,109.648,20.555,109.648,20.555l12.861,29.283C363.16,139.473,356.741,92.822,350.917,80.153z"/>
<path style="fill:#A0D2F0;" d="M238.372,396.295l18.194-18.263l-62.032-53.195c-2.679-2.183-6.638-1.695-8.707,1.074l-14.385,21.901
	l48.734,66.746L238.372,396.295z"/>
<path style="fill:#E4EAF6;" d="M293.091,414.42l48.483-66.928l-14.467-21.846c-2.079-2.761-6.04-3.234-8.711-1.041l-61.832,53.427
	l18.263,18.194L293.091,414.42z"/>
<path style="fill:#A0D2F0;" d="M293.091,414.42l48.483-66.928l-14.467-21.846c-2.079-2.761-6.04-3.234-8.711-1.041l-61.832,53.427
	l18.263,18.194L293.091,414.42z"/>
<polyline style="fill:#5B5D6E;" points="267.952,412.842 245.167,412.082 238.464,444.903 274.92,444.835 267.952,412.842 "/>
<path style="fill:#515262;" d="M237.382,403.559c0.013,7.051,5.793,12.81,12.844,12.796l12.82-0.024
	c7.051-0.013,12.81-5.793,12.796-12.844l-0.012-6.409l-19.266-19.194l-19.194,19.266L237.382,403.559z"/>
<path d="M160.009,220.024c0.052,27.767,10.22,55.868,27.893,77.098c18.532,22.259,42.667,34.509,67.982,34.508
	c0.048,0,0.099,0,0.147,0c25.363-0.048,49.483-12.388,67.916-34.746c17.537-21.27,27.565-49.398,27.512-77.171l-0.046-24.639
	c13.091-56.831,8.118-104.773,3.804-117.985c-1.12-3.432-4.476-5.507-7.927-5.14c-0.58-0.054-1.174-0.049-1.776,0.038
	c-14.988,2.171-33.325-1.476-52.738-5.336c-31.341-6.232-66.758-13.261-93.677,5.591c-0.282-0.032-0.566-0.052-0.856-0.052
	c-0.005,0-0.01,0-0.015,0c-15.282,0.029-28.291,5.911-37.621,17.012c-8.508,10.123-13.178,24.047-13.15,39.207
	c0.047,25.034,10.824,71.385,12.525,78.55L160.009,220.024z M256.003,316.601c-0.039,0-0.078,0-0.117,0
	c-20.772,0-40.809-10.33-56.433-29.096c-15.471-18.582-24.37-43.188-24.415-67.509l-0.018-9.611c0,0,0-0.001,0-0.002
	c-0.038-20.12,13.509-47.494,18.451-56.81c72.711-8.51,121.309,11.649,132.011,16.66l10.904,25.56l0.045,23.949
	C336.529,271.258,298.945,316.52,256.003,316.601z M172.113,98.869c6.39-7.603,15.431-11.632,26.144-11.652
	c0.577-0.001,1.136-0.073,1.675-0.197c2.099,0.479,4.387,0.059,6.233-1.349c21.761-16.594,53.238-10.335,83.68-4.281
	c16.137,3.209,31.575,6.279,45.903,6.279c2.203,0,4.378-0.08,6.528-0.235c2.522,13.647,4.655,43.9-1.1,81.287l-2.962-6.943
	c-0.663-1.556-1.833-2.842-3.318-3.651c-2.298-1.251-57.209-30.458-146.529-19.069c-2.466,0.124-4.819,1.454-6.142,3.753
	c-0.528,0.918-7.943,13.931-14.068,30.26c-2.897-15.287-5.648-32.89-5.67-44.692C162.465,116.761,165.884,106.282,172.113,98.869z"
	/>
<path d="M393.973,350.099c-0.161-0.044-0.325-0.084-0.489-0.118l-47.91-9.927l-12.757-19.265c-0.083-0.126-0.171-0.25-0.262-0.372
	C330,317.025,325.939,315,321.692,315c-3.134,0-6.197,1.097-8.621,3.088c-0.048,0.04-0.097,0.08-0.144,0.121l-56.936,49.198
	l-57.122-48.984c-0.047-0.04-0.095-0.08-0.144-0.12c-2.419-1.971-5.466-3.056-8.581-3.056c-4.268,0-8.34,2.04-10.893,5.456
	c-0.09,0.121-0.177,0.245-0.26,0.372l-12.685,19.313l-47.873,10.107c-0.164,0.034-0.328,0.074-0.489,0.12
	c-29.992,8.463-45.636,38.027-45.588,62.857l0.028,15.07c0.012,6.461,2.83,12.472,7.935,16.925
	c4.808,4.194,11.126,6.502,17.797,6.501c0.018,0,0.037,0,0.055,0l139.713-0.262c0.01,0,0.021,0.001,0.031,0.001
	c0.013,0,0.025-0.001,0.037-0.001l36.374-0.068c0.01,0,0.019,0.001,0.029,0.001c0.009,0,0.018-0.001,0.027-0.001l139.745-0.263
	c14.194-0.027,25.723-10.58,25.698-23.524l-0.028-15.07C439.751,387.954,423.996,358.45,393.973,350.099z M321.393,330.758
	l10.485,15.833l-40.27,55.591l-24.558-24.467L321.393,330.758z M250.424,419.672c0.097,0.002,0.193,0.017,0.292,0.017
	c0.01,0,0.021,0,0.031,0l10.686-0.02c0.108,0,0.213-0.016,0.322-0.019l3.429,16.979l-18.125,0.034L250.424,419.672z
	 M264.569,399.742c0.005,2.755-1.696,4.895-3.164,4.898l-10.686,0.02c-0.001,0-0.002,0-0.003,0c-0.837,0-1.521-0.645-1.854-1.031
	c-0.84-0.971-1.323-2.376-1.326-3.855l-0.006-3.292l8.5-8.532l8.532,8.5L264.569,399.742z M190.452,331.004l54.52,46.753
	l-24.466,24.558l-40.479-55.438L190.452,331.004z M98.143,436.942c-0.009,0-0.018,0-0.027,0c-3.037,0-5.847-0.993-7.917-2.798
	c-1.038-0.906-2.779-2.84-2.785-5.628l-0.028-15.07c-0.036-19.101,11.772-41.778,34.409-48.299l45.89-9.689l45.869,62.82
	c1.295,1.774,3.303,2.894,5.495,3.061c0.191,0.015,0.384,0.022,0.574,0.022c1.99,0,3.907-0.791,5.323-2.211l9.804-9.841
	c0.522,1.043,1.127,2.039,1.82,2.975c-0.004,0.02-0.01,0.038-0.014,0.057l-4.822,24.349L98.143,436.942z M414.099,436.349
	l-133.589,0.25l-4.913-24.331c-0.004-0.021-0.011-0.04-0.016-0.061c0.681-0.928,1.294-1.919,1.816-2.971l9.834,9.797
	c1.415,1.409,3.323,2.191,5.303,2.191c0.2,0,0.401-0.008,0.602-0.024c2.191-0.175,4.195-1.302,5.483-3.082l45.632-62.993
	l45.927,9.516c22.662,6.435,34.554,29.068,34.59,48.168l0.028,15.07C424.807,432.461,419.907,436.338,414.099,436.349z"/>
<path d="M64.04,235.239c0.075,39.959,28.822,72.421,64.109,72.418c0.034,0,0.073,0,0.108,0c12.935-0.024,25.382-4.366,35.994-12.556
	c3.285-2.535,3.893-7.254,1.358-10.54c-2.536-3.286-7.254-3.893-10.54-1.358c-7.967,6.148-17.248,9.407-26.841,9.425
	c-0.028,0-0.052,0-0.08,0c-27.009,0-49.02-25.739-49.08-57.417l-0.009-4.712l0,0c-0.025-12.901,5.337-30.02,8.047-37.847
	c17.483-1.628,33.078,0.634,45.803,2.488l1.435,0.209c0.367,0.053,0.73,0.079,1.09,0.079c3.672,0,6.883-2.694,7.427-6.434
	c0.597-4.108-2.248-7.92-6.355-8.517l-1.429-0.207c-14.701-2.143-32.992-4.808-54.325-2.036c-0.03,0.003-0.059,0.006-0.089,0.01
	h-0.001c-0.005,0-0.009,0.002-0.014,0.002c-0.238,0.032-0.474,0.075-0.707,0.129c-0.109,0.025-0.213,0.059-0.32,0.088
	c-0.125,0.035-0.251,0.067-0.375,0.108c-0.14,0.047-0.276,0.103-0.412,0.157c-0.087,0.035-0.175,0.066-0.26,0.104
	c-0.141,0.063-0.278,0.134-0.414,0.206c-0.079,0.041-0.159,0.079-0.236,0.123c-0.125,0.071-0.244,0.149-0.365,0.227
	c-0.086,0.056-0.174,0.109-0.258,0.168c-0.101,0.071-0.197,0.148-0.294,0.225c-0.097,0.076-0.195,0.151-0.29,0.232
	c-0.077,0.067-0.149,0.138-0.224,0.208c-0.105,0.098-0.21,0.196-0.31,0.302c-0.06,0.063-0.116,0.131-0.174,0.197
	c-0.103,0.116-0.205,0.231-0.302,0.355c-0.056,0.072-0.106,0.147-0.159,0.221c-0.087,0.121-0.176,0.241-0.256,0.369
	c-0.067,0.105-0.125,0.216-0.187,0.326c-0.057,0.101-0.117,0.198-0.17,0.303c-0.102,0.2-0.192,0.406-0.277,0.615
	c-0.007,0.018-0.016,0.034-0.023,0.052c0,0.001-0.002,0.005-0.003,0.007c-0.007,0.018-0.013,0.035-0.02,0.052
	c-0.172,0.444-1.041,2.707-2.22,6.19c-0.807-5.891-1.361-11.515-1.369-15.91c-0.014-7.579,1.798-14.348,5.106-19.058
	c3.046-4.34,7.081-6.545,11.993-6.555c0.393,0,0.776-0.041,1.153-0.1c0.374,0.057,0.75,0.096,1.13,0.096
	c1.588,0,3.19-0.502,4.551-1.54c7.579-5.778,17.334-7.738,31.631-6.354c4.131,0.397,7.804-2.625,8.204-6.755
	c0.4-4.131-2.625-7.804-6.756-8.204c-10.819-1.047-26.483-1.3-40.045,7.83c-9.757,0.05-18.334,4.643-24.162,12.945
	c-5.072,7.225-7.854,17.07-7.834,27.721c0.032,16.883,6.777,47.731,8.03,53.316L64.04,235.239z"/>
<path d="M55.647,380.934c-0.005,0-0.01,0-0.015,0l-35.681,0.067c-1.459-0.01-2.866-0.476-3.828-1.315
	c-0.489-0.427-1.073-1.125-1.074-2.028l-0.019-10.262c-0.023-12.08,7.392-26.408,21.61-30.55l29.521-6.233l15.304,21.989
	c1.461,2.098,3.798,3.222,6.175,3.222c1.481,0,2.978-0.437,4.285-1.348c3.407-2.371,4.246-7.054,1.876-10.46l-15.247-21.907
	l4.898-7.457l31.729,23.596c3.328,2.477,8.037,1.784,10.514-1.545c2.477-3.33,1.784-8.037-1.545-10.514l-34.361-25.555
	c-2.427-1.905-5.555-2.779-8.623-2.402c-3.135,0.387-6.018,2.06-7.909,4.591c-0.091,0.122-0.177,0.246-0.262,0.373l-8.094,12.324
	l-31.627,6.678c-0.164,0.035-0.328,0.075-0.489,0.12C11.217,328.404-0.034,349.617,0,367.426l0.019,10.261
	c0.009,5.027,2.277,9.884,6.224,13.326c3.71,3.236,8.572,5.019,13.693,5.018c0.014,0,0.028,0,0.042,0l35.681-0.067
	c4.15-0.008,7.508-3.379,7.5-7.528C63.153,384.289,59.791,380.934,55.647,380.934z"/>
<path d="M375.628,130.852c11.82,0.213,24.871,2.3,37.493,4.318c9.704,1.551,18.991,3.024,26.994,3.486
	c-0.234,19.623-1.509,37.225-2.948,51.256c-0.054-0.051-0.111-0.101-0.167-0.15c-0.109-0.097-0.22-0.188-0.334-0.279
	c-0.078-0.061-0.155-0.122-0.236-0.181c-0.126-0.092-0.255-0.177-0.387-0.26c-0.052-0.033-0.099-0.071-0.152-0.103
	c-0.06-0.036-0.121-0.069-0.181-0.105c-0.017-0.009-0.033-0.02-0.051-0.029c-15.99-9.591-35.37-15.106-59.241-16.851
	c-4.142-0.305-7.74,2.807-8.042,6.946s2.807,7.74,6.946,8.042c20.578,1.504,37.237,6.008,50.848,13.733
	c1.892,4.407,6.214,15.921,6.239,29.162l0,0l0.009,4.711c0.029,15.702-5.199,30.35-14.724,41.244
	c-9.202,10.524-21.354,16.333-34.22,16.357c-9.56,0.031-18.886-3.206-26.877-9.324c-3.295-2.523-8.011-1.898-10.535,1.398
	c-2.523,3.295-1.897,8.012,1.399,10.534c10.614,8.127,23.035,12.421,35.931,12.42c0.037,0,0.074,0,0.11,0
	c17.255-0.032,33.416-7.666,45.505-21.494c11.927-13.642,18.474-31.812,18.438-51.164l-0.016-8.71
	c1.086-5.828,7.669-43.215,7.747-92.663c0.201-0.757,0.292-1.558,0.241-2.383c-0.243-4.01-3.589-7.084-7.563-7.05
	c-0.063-0.001-0.124-0.009-0.188-0.009c-0.005,0-0.01,0-0.015,0c-0.165,0-0.327,0.015-0.49,0.025
	c-7.807,0.41-19.399-1.439-31.67-3.401c-12.523-2.002-26.717-4.271-39.593-4.505c-4.104-0.058-7.575,3.228-7.649,7.377
	C368.175,127.352,371.478,130.777,375.628,130.852z"/>
<path d="M511.981,366.464c-0.034-17.809-11.365-38.98-32.955-44.984c-0.162-0.045-0.325-0.084-0.489-0.118l-31.651-6.558
	l-8.14-12.293c-0.083-0.126-0.171-0.25-0.263-0.372c-1.9-2.524-4.789-4.186-7.926-4.561c-3.069-0.367-6.193,0.52-8.613,2.434
	l-34.267,25.684c-3.32,2.489-3.995,7.2-1.506,10.52c2.489,3.32,7.198,3.995,10.52,1.506l31.64-23.716l4.926,7.439l-15.165,21.964
	c-2.359,3.416-1.501,8.095,1.915,10.454c1.303,0.899,2.79,1.332,4.262,1.332c2.386,0,4.732-1.133,6.191-3.246l15.222-22.046
	l29.544,6.121c14.234,4.089,21.703,18.389,21.726,30.469l0.019,10.261c0.003,1.586-2.004,3.356-4.889,3.361l-35.681,0.066
	c-4.15,0.008-7.508,3.378-7.5,7.529c0.008,4.145,3.37,7.5,7.514,7.499c0.005,0,0.01,0,0.015,0l35.681-0.066
	c10.986-0.021,19.909-8.284,19.89-18.419L511.981,366.464z"/>
<g>
</g>
<g>
</g>
<g>
</g>
<g>
</g>
<g>
</g>
<g>
</g>
<g>
</g>
<g>
</g>
<g>
</g>
<g>
</g>
<g>
</g>
<g>
</g>
<g>
</g>
<g>
</g>
<g>
</g>
</svg>
